<?xml version="1.0" encoding="UTF-8" standalone="no"?>
<svg width="20px" height="2089px" viewBox="0 0 20 2089" version="1.1" xmlns="http://www.w3.org/2000/svg" xmlns:xlink="http://www.w3.org/1999/xlink">
    <!-- Generator: Sketch 3.7.2 (28276) - http://www.bohemiancoding.com/sketch -->
    <title>1</title>
    <desc>Created with Sketch.</desc>
    <defs></defs>
    <g id="Page-1" stroke="none" stroke-width="1" fill="none" fill-rule="evenodd" font-size="12" font-family="Menlo-Regular, Menlo" font-weight="normal">
        <g id="Desktop-HD" transform="translate(-10.000000, -237.000000)" fill="#656565">
            <text id="1">
                <tspan x="16.3876953" y="239">1</tspan>
                <tspan x="16.3876953" y="260">2</tspan>
                <tspan x="16.3876953" y="281">3</tspan>
                <tspan x="16.3876953" y="302">4</tspan>
                <tspan x="16.3876953" y="323">5</tspan>
                <tspan x="16.3876953" y="344">6</tspan>
                <tspan x="16.3876953" y="365">7</tspan>
                <tspan x="16.3876953" y="386">8</tspan>
                <tspan x="16.3876953" y="407">9</tspan>
                <tspan x="12.7753906" y="428">10</tspan>
                <tspan x="12.7753906" y="449">11</tspan>
                <tspan x="12.7753906" y="470">12</tspan>
                <tspan x="12.7753906" y="491">13</tspan>
                <tspan x="12.7753906" y="512">14</tspan>
                <tspan x="12.7753906" y="533">15</tspan>
                <tspan x="12.7753906" y="554">16</tspan>
                <tspan x="12.7753906" y="575">17</tspan>
                <tspan x="12.7753906" y="596">18</tspan>
                <tspan x="12.7753906" y="617">19</tspan>
                <tspan x="12.7753906" y="638">20</tspan>
                <tspan x="12.7753906" y="659">21</tspan>
                <tspan x="12.7753906" y="680">22</tspan>
                <tspan x="12.7753906" y="701">23</tspan>
                <tspan x="12.7753906" y="722">24</tspan>
                <tspan x="12.7753906" y="743">25</tspan>
                <tspan x="12.7753906" y="764">26</tspan>
                <tspan x="12.7753906" y="785">27</tspan>
                <tspan x="12.7753906" y="806">28</tspan>
                <tspan x="12.7753906" y="827">29</tspan>
                <tspan x="12.7753906" y="848">30</tspan>
                <tspan x="12.7753906" y="869">31</tspan>
                <tspan x="12.7753906" y="890">32</tspan>
                <tspan x="12.7753906" y="911">33</tspan>
                <tspan x="12.7753906" y="932">34</tspan>
                <tspan x="12.7753906" y="953">35</tspan>
                <tspan x="12.7753906" y="974">36</tspan>
                <tspan x="12.7753906" y="995">37</tspan>
                <tspan x="12.7753906" y="1016">38</tspan>
                <tspan x="12.7753906" y="1037">39</tspan>
                <tspan x="12.7753906" y="1058">40</tspan>
                <tspan x="12.7753906" y="1079">41</tspan>
                <tspan x="12.7753906" y="1100">42</tspan>
                <tspan x="12.7753906" y="1121">43</tspan>
                <tspan x="12.7753906" y="1142">44</tspan>
                <tspan x="12.7753906" y="1163">45</tspan>
                <tspan x="12.7753906" y="1184">46</tspan>
                <tspan x="12.7753906" y="1205">47</tspan>
                <tspan x="12.7753906" y="1226">48</tspan>
                <tspan x="12.7753906" y="1247">49</tspan>
                <tspan x="12.7753906" y="1268">50</tspan>
                <tspan x="12.7753906" y="1289">51</tspan>
                <tspan x="12.7753906" y="1310">52</tspan>
                <tspan x="12.7753906" y="1331">53</tspan>
                <tspan x="12.7753906" y="1352">54</tspan>
                <tspan x="12.7753906" y="1373">55</tspan>
                <tspan x="12.7753906" y="1394">56</tspan>
                <tspan x="12.7753906" y="1415">57</tspan>
                <tspan x="12.7753906" y="1436">58</tspan>
                <tspan x="12.7753906" y="1457">59</tspan>
                <tspan x="12.7753906" y="1478">60</tspan>
                <tspan x="12.7753906" y="1499">61</tspan>
                <tspan x="12.7753906" y="1520">62</tspan>
                <tspan x="12.7753906" y="1541">63</tspan>
                <tspan x="12.7753906" y="1562">64</tspan>
                <tspan x="12.7753906" y="1583">65</tspan>
                <tspan x="12.7753906" y="1604">66</tspan>
                <tspan x="12.7753906" y="1625">67</tspan>
                <tspan x="12.7753906" y="1646">68</tspan>
                <tspan x="12.7753906" y="1667">69</tspan>
                <tspan x="12.7753906" y="1688">70</tspan>
                <tspan x="12.7753906" y="1709">71</tspan>
                <tspan x="12.7753906" y="1730">72</tspan>
                <tspan x="12.7753906" y="1751">73</tspan>
                <tspan x="12.7753906" y="1772">74</tspan>
                <tspan x="12.7753906" y="1793">75</tspan>
                <tspan x="12.7753906" y="1814">76</tspan>
                <tspan x="12.7753906" y="1835">77</tspan>
                <tspan x="12.7753906" y="1856">78</tspan>
                <tspan x="12.7753906" y="1877">79</tspan>
                <tspan x="12.7753906" y="1898">80</tspan>
                <tspan x="12.7753906" y="1919">81</tspan>
                <tspan x="12.7753906" y="1940">82</tspan>
                <tspan x="12.7753906" y="1961">83</tspan>
                <tspan x="12.7753906" y="1982">84</tspan>
                <tspan x="12.7753906" y="2003">85</tspan>
                <tspan x="12.7753906" y="2024">86</tspan>
                <tspan x="12.7753906" y="2045">87</tspan>
                <tspan x="12.7753906" y="2066">88</tspan>
                <tspan x="12.7753906" y="2087">89</tspan>
                <tspan x="12.7753906" y="2108">90</tspan>
                <tspan x="12.7753906" y="2129">91</tspan>
                <tspan x="12.7753906" y="2150">92</tspan>
                <tspan x="12.7753906" y="2171">93</tspan>
                <tspan x="12.7753906" y="2192">94</tspan>
                <tspan x="12.7753906" y="2213">95</tspan>
                <tspan x="12.7753906" y="2234">96</tspan>
                <tspan x="12.7753906" y="2255">97</tspan>
                <tspan x="12.7753906" y="2276">98</tspan>
                <tspan x="12.7753906" y="2297">99</tspan>
                <tspan x="9.16308594" y="2318">100</tspan>
                <tspan x="20" y="2339"></tspan>
            </text>
        </g>
    </g>
</svg>